<svg width="212" height="230" viewBox="0 0 212 230" fill="none" xmlns="http://www.w3.org/2000/svg">
<path d="M13.568 65.064C17.0667 61.0533 20.8213 59.048 24.832 59.048C28.8427 59.048 31.232 62.12 32 68.264V68.648C32 71.72 30.2507 78.4187 26.752 88.744L32.768 87.464C40.1067 87.464 44.3733 92.1573 45.568 101.544V103.464C45.568 114.728 38.4853 125.011 24.32 134.312C19.712 136.104 16.384 137 14.336 137C7.424 137 2.64533 132.989 0 124.968C0.170667 124.029 1.23733 122.707 3.2 121C4.13867 82.4293 4.94933 63.144 5.632 63.144C7.08267 61.6933 8.40533 60.968 9.6 60.968C11.904 61.8213 13.056 63.1867 13.056 65.064H13.568ZM12.288 100.264H12.8C19.7973 87.0373 23.5093 76.7973 23.936 69.544V66.6H22.656C20.864 66.6 18.4747 71.4213 15.488 81.064C13.3547 90.1947 12.288 96.5947 12.288 100.264ZM17.152 108.2L15.232 108.968L12.032 108.712V108.968L11.52 110.632V123.944L11.136 128.68L13.952 129.448C21.2053 129.448 28.3733 123.987 35.456 113.064C37.4187 108.2 38.4 104.189 38.4 101.032C38.4 97.1067 36.5227 95.144 32.768 95.144H32.256C28.16 95.144 23.1253 99.496 17.152 108.2ZM67.578 86.568C72.954 86.568 76.154 90.3227 77.178 97.832V98.984C77.178 107.261 72.9113 114.856 64.378 121.768C69.3273 126.632 77.9887 129.064 90.362 129.064C92.2393 129.661 93.178 130.984 93.178 133.032C93.178 135.336 91.6847 136.488 88.698 136.488C80.3353 136.488 71.546 134.355 62.33 130.088V133.8C62.33 142.589 60.4527 146.984 56.698 146.984C54.0527 146.984 52.73 141.907 52.73 131.752V121.768L52.346 118.184L53.242 114.088L52.346 101.8V101.288C52.346 98.984 53.5407 97.4053 55.93 96.552C59.258 89.896 63.1407 86.568 67.578 86.568ZM61.178 114.6C63.6527 114.6 66.426 110.163 69.498 101.288V95.784L67.962 94.12H66.81C63.0553 96.68 61.178 103.507 61.178 114.6ZM108.952 91.048C112.365 91.1333 118.125 97.1067 126.232 108.968L126.488 111.144C126.488 113.533 120.643 115.368 108.952 116.648L108.568 117.032V117.544C110.36 125.224 112.237 129.064 114.2 129.064H115.736C118.467 129.064 122.605 126.12 128.152 120.232H128.92C130.627 120.232 131.949 121.469 132.888 123.944C132.888 125.992 129.304 129.533 122.136 134.568C120.259 135.677 117.997 136.488 115.352 137C108.44 137 103.619 130.515 100.888 117.544C96.9627 116.947 95 115.325 95 112.68C95 110.803 96.4507 109.565 99.352 108.968V109.48L100.632 108.968V105.768C100.632 95.9547 103.405 91.048 108.952 91.048ZM109.72 100.264H108.568L108.056 105V108.968H108.568C113.347 108.797 115.736 108.285 115.736 107.432C113.517 104.104 111.512 101.715 109.72 100.264ZM154.447 93.864C161.7 94.4613 165.327 98.0027 165.327 104.488L165.583 106.152L165.327 126.12C165.327 128.424 166.65 131.539 169.295 135.464V135.72C168.612 138.195 167.375 139.432 165.583 139.432C160.292 137.213 157.647 132.52 157.647 125.352V123.688L157.263 123.432L157.647 122.92V122.664L158.031 105C158.031 102.525 156.964 101.288 154.831 101.288H153.295C149.028 102.995 146.895 112.339 146.895 129.32C146.895 135.208 145.402 138.152 142.415 138.152C140.111 138.152 138.916 136.701 138.831 133.8V121C138.831 104.445 140.282 96.168 143.183 96.168L144.463 95.784L147.151 96.168C149.455 94.632 151.887 93.864 154.447 93.864ZM193.787 88.744C200.102 88.744 204.88 93.4373 208.123 102.824L208.635 105.512C208.635 114.643 204.368 123.987 195.835 133.544C192.422 136.701 188.966 138.28 185.467 138.28C180.347 138.28 176.72 135.336 174.587 129.448C173.819 126.717 173.435 124.328 173.435 122.28V120.744C173.435 107.261 178.342 97.0213 188.155 90.024C189.862 89.1707 191.739 88.744 193.787 88.744ZM180.987 122.024C180.987 127.827 182.48 130.728 185.467 130.728C191.696 130.728 196.859 122.749 200.955 106.792V104.36C199.504 99.0693 196.816 96.424 192.891 96.424C191.355 96.424 190.587 97.4907 190.587 99.624C190.587 101.075 188.88 102.227 185.467 103.08C182.48 108.115 180.987 114.429 180.987 122.024Z" fill="url(#paint0_linear_319_42)"/>
<path d="M53.72 153.248C65.752 153.248 77.3573 159.648 88.536 172.448C91.9493 179.189 93.656 185.717 93.656 192.032C93.656 206.88 86.104 217.803 71 224.8C66.136 226.933 60.888 228 55.256 228H52.056C48.8987 227.915 47.32 226.592 47.32 224.032H46.936C46.936 221.728 48.3867 220.533 51.288 220.448H54.232V219.68H54.488C49.1973 197.237 46.552 180.555 46.552 169.632H46.168L42.968 171.68C40.7493 171.68 39.4267 170.187 39 167.2C39 162.507 41.6453 158.411 46.936 154.912C49.0693 153.803 51.3307 153.248 53.72 153.248ZM55.256 160.8H54.232V166.944C54.232 180.939 56.8773 198.517 62.168 219.68H62.552C78.3387 215.413 86.232 206.197 86.232 192.032C86.232 176.843 77.4 166.688 59.736 161.568C58.712 161.056 57.2187 160.8 55.256 160.8ZM110.202 182.048C113.615 182.133 119.375 188.107 127.482 199.968L127.738 202.144C127.738 204.533 121.893 206.368 110.202 207.648L109.818 208.032V208.544C111.61 216.224 113.487 220.064 115.45 220.064H116.986C119.717 220.064 123.855 217.12 129.402 211.232H130.17C131.877 211.232 133.199 212.469 134.138 214.944C134.138 216.992 130.554 220.533 123.386 225.568C121.509 226.677 119.247 227.488 116.602 228C109.69 228 104.869 221.515 102.138 208.544C98.2127 207.947 96.25 206.325 96.25 203.68C96.25 201.803 97.7007 200.565 100.602 199.968V200.48L101.882 199.968V196.768C101.882 186.955 104.655 182.048 110.202 182.048ZM110.97 191.264H109.818L109.306 196V199.968H109.818C114.597 199.797 116.986 199.285 116.986 198.432C114.767 195.104 112.762 192.715 110.97 191.264ZM140.977 184.864C142.94 184.864 145.073 189.557 147.377 198.944C150.62 206.453 152.454 210.421 152.881 210.848C153.308 210.848 154.886 206.581 157.617 198.048C160.348 189.515 162.95 185.248 165.425 185.248C167.729 186.101 168.881 187.467 168.881 189.344C161.798 207.605 158.257 219.68 158.257 225.568L155.825 228H153.393C150.321 225.781 145.116 214.048 137.777 192.8L136.625 188.064C137.222 185.931 138.673 184.864 140.977 184.864Z" fill="url(#paint1_linear_319_42)"/>
<defs>
<linearGradient id="paint0_linear_319_42" x1="65" y1="58" x2="212" y2="152" gradientUnits="userSpaceOnUse">
<stop offset="0.263281" stop-color="#9746FF"/>
<stop offset="1" stop-color="#5901C9"/>
</linearGradient>
<linearGradient id="paint1_linear_319_42" x1="39" y1="154.5" x2="213" y2="228" gradientUnits="userSpaceOnUse">
<stop stop-color="#9746FF"/>
<stop offset="1" stop-color="#5901C9"/>
</linearGradient>
</defs>
</svg>
